<?xml version="1.0" encoding="UTF-8"?><svg id="Calque_2" xmlns="http://www.w3.org/2000/svg" xmlns:xlink="http://www.w3.org/1999/xlink" viewBox="0 0 544.79 544.81"><defs><style>.cls-1{fill:url(#linear-gradient);}.cls-2{fill:none;stroke:#2a2a2a;stroke-width:.66px;}.cls-3{fill:url(#linear-gradient-8);}.cls-4{fill:url(#linear-gradient-9);}.cls-5{fill:url(#linear-gradient-3);}.cls-6{fill:url(#linear-gradient-4);}.cls-7{fill:url(#linear-gradient-2);}.cls-8{fill:url(#linear-gradient-6);}.cls-9{fill:url(#linear-gradient-7);}.cls-10{fill:url(#linear-gradient-5);}.cls-11{fill:url(#linear-gradient-59);}.cls-12{fill:url(#linear-gradient-57);}.cls-13{fill:url(#linear-gradient-58);}.cls-14{fill:url(#linear-gradient-55);}.cls-15{fill:url(#linear-gradient-56);}.cls-16{fill:url(#linear-gradient-53);}.cls-17{fill:url(#linear-gradient-54);}.cls-18{fill:url(#linear-gradient-51);}.cls-19{fill:url(#linear-gradient-52);}.cls-20{fill:url(#linear-gradient-50);}.cls-21{fill:url(#linear-gradient-67);}.cls-22{fill:url(#linear-gradient-64);}.cls-23{fill:url(#linear-gradient-63);}.cls-24{fill:url(#linear-gradient-66);}.cls-25{fill:url(#linear-gradient-65);}.cls-26{fill:url(#linear-gradient-60);}.cls-27{fill:url(#linear-gradient-62);}.cls-28{fill:url(#linear-gradient-61);}.cls-29{fill:url(#linear-gradient-41);}.cls-30{fill:url(#linear-gradient-40);}.cls-31{fill:url(#linear-gradient-43);}.cls-32{fill:url(#linear-gradient-42);}.cls-33{fill:url(#linear-gradient-45);}.cls-34{fill:url(#linear-gradient-46);}.cls-35{fill:url(#linear-gradient-44);}.cls-36{fill:url(#linear-gradient-49);}.cls-37{fill:url(#linear-gradient-47);}.cls-38{fill:url(#linear-gradient-48);}.cls-39{fill:url(#linear-gradient-14);}.cls-40{fill:url(#linear-gradient-18);}.cls-41{fill:url(#linear-gradient-22);}.cls-42{fill:url(#linear-gradient-20);}.cls-43{fill:url(#linear-gradient-21);}.cls-44{fill:url(#linear-gradient-23);}.cls-45{fill:url(#linear-gradient-15);}.cls-46{fill:url(#linear-gradient-19);}.cls-47{fill:url(#linear-gradient-16);}.cls-48{fill:url(#linear-gradient-17);}.cls-49{fill:url(#linear-gradient-13);}.cls-50{fill:url(#linear-gradient-12);}.cls-51{fill:url(#linear-gradient-10);}.cls-52{fill:url(#linear-gradient-11);}.cls-53{fill:url(#linear-gradient-27);}.cls-54{fill:url(#linear-gradient-24);}.cls-55{fill:url(#linear-gradient-26);}.cls-56{fill:url(#linear-gradient-38);}.cls-57{fill:url(#linear-gradient-35);}.cls-58{fill:url(#linear-gradient-37);}.cls-59{fill:url(#linear-gradient-34);}.cls-60{fill:url(#linear-gradient-39);}.cls-61{fill:url(#linear-gradient-36);}.cls-62{fill:url(#linear-gradient-25);}.cls-63{fill:url(#linear-gradient-28);}.cls-64{fill:url(#linear-gradient-29);}.cls-65{fill:url(#linear-gradient-33);}.cls-66{fill:url(#linear-gradient-30);}.cls-67{fill:url(#linear-gradient-32);}.cls-68{fill:url(#linear-gradient-31);}.cls-69{filter:url(#outer-glow-1);}</style><filter id="outer-glow-1" filterUnits="userSpaceOnUse"><feOffset dx="0" dy="0"/><feGaussianBlur result="blur" stdDeviation="7.56"/><feFlood flood-color="#000" flood-opacity=".65"/><feComposite in2="blur" operator="in"/><feComposite in="SourceGraphic"/></filter><linearGradient id="linear-gradient" x1="79.78" y1="79.78" x2="465.01" y2="465.02" gradientTransform="translate(544.8 0) rotate(90)" gradientUnits="userSpaceOnUse"><stop offset="0" stop-color="#4d4d4d"/><stop offset=".31" stop-color="#5b5b5b"/><stop offset=".5" stop-color="#666"/><stop offset=".58" stop-color="#595959"/><stop offset=".86" stop-color="#343434"/><stop offset="1" stop-color="#262626"/></linearGradient><linearGradient id="linear-gradient-2" x1="80.33" y1="464.46" x2="464.46" y2="80.34" gradientTransform="translate(544.8 0) rotate(90)" gradientUnits="userSpaceOnUse"><stop offset=".25" stop-color="#000"/><stop offset=".5" stop-color="#202020"/><stop offset=".75" stop-color="#000"/></linearGradient><linearGradient id="linear-gradient-3" x1="182.62" y1="272.4" x2="362.18" y2="272.4" gradientTransform="translate(544.8 0) rotate(90)" gradientUnits="userSpaceOnUse"><stop offset="0" stop-color="#000"/><stop offset=".5" stop-color="#7e7e7e"/><stop offset="1" stop-color="#000"/></linearGradient><linearGradient id="linear-gradient-4" x1="177.04" y1="274.82" x2="367.76" y2="269.99" gradientTransform="translate(544.8 0) rotate(90)" gradientUnits="userSpaceOnUse"><stop offset="0" stop-color="#000"/><stop offset=".25" stop-color="#3f3f3f"/><stop offset=".5" stop-color="gray"/><stop offset=".75" stop-color="#404040"/><stop offset="1" stop-color="#000"/></linearGradient><linearGradient id="linear-gradient-5" x1="171.53" y1="277.52" x2="373.27" y2="267.29" gradientTransform="translate(544.8 0) rotate(90)" gradientUnits="userSpaceOnUse"><stop offset="0" stop-color="#000"/><stop offset=".25" stop-color="#3d3d3d"/><stop offset=".5" stop-color="#818181"/><stop offset=".75" stop-color="#3e3e3e"/><stop offset="1" stop-color="#000"/></linearGradient><linearGradient id="linear-gradient-6" x1="166.09" y1="280.5" x2="378.7" y2="264.31" gradientTransform="translate(544.8 0) rotate(90)" gradientUnits="userSpaceOnUse"><stop offset="0" stop-color="#000"/><stop offset=".25" stop-color="#3c3c3c"/><stop offset=".5" stop-color="#838383"/><stop offset=".75" stop-color="#3d3d3d"/><stop offset="1" stop-color="#000"/></linearGradient><linearGradient id="linear-gradient-7" x1="160.75" y1="283.75" x2="384.05" y2="261.05" gradientTransform="translate(544.8 0) rotate(90)" gradientUnits="userSpaceOnUse"><stop offset="0" stop-color="#000"/><stop offset=".25" stop-color="#3a3a3a"/><stop offset=".5" stop-color="#848485"/><stop offset=".75" stop-color="#3b3b3b"/><stop offset="1" stop-color="#000"/></linearGradient><linearGradient id="linear-gradient-8" x1="155.51" y1="287.29" x2="389.29" y2="257.51" gradientTransform="translate(544.8 0) rotate(90)" gradientUnits="userSpaceOnUse"><stop offset="0" stop-color="#000"/><stop offset=".25" stop-color="#383838"/><stop offset=".5" stop-color="#868687"/><stop offset=".75" stop-color="#393939"/><stop offset="1" stop-color="#000"/></linearGradient><linearGradient id="linear-gradient-9" x1="150.37" y1="291.1" x2="394.42" y2="253.71" gradientTransform="translate(544.8 0) rotate(90)" gradientUnits="userSpaceOnUse"><stop offset="0" stop-color="#000"/><stop offset=".25" stop-color="#363636"/><stop offset=".5" stop-color="#888889"/><stop offset=".75" stop-color="#373737"/><stop offset="1" stop-color="#000"/></linearGradient><linearGradient id="linear-gradient-10" x1="145.36" y1="295.17" x2="399.44" y2="249.63" gradientTransform="translate(544.8 0) rotate(90)" gradientUnits="userSpaceOnUse"><stop offset="0" stop-color="#000"/><stop offset=".25" stop-color="#343434"/><stop offset=".5" stop-color="#8a8a8b"/><stop offset=".75" stop-color="#353535"/><stop offset="1" stop-color="#000"/></linearGradient><linearGradient id="linear-gradient-11" x1="140.48" y1="299.51" x2="404.32" y2="245.29" gradientTransform="translate(544.8 0) rotate(90)" gradientUnits="userSpaceOnUse"><stop offset="0" stop-color="#000"/><stop offset=".25" stop-color="#333"/><stop offset=".5" stop-color="#8c8c8d"/><stop offset=".75" stop-color="#333"/><stop offset="1" stop-color="#000"/></linearGradient><linearGradient id="linear-gradient-12" x1="135.74" y1="304.11" x2="409.05" y2="240.69" gradientTransform="translate(544.8 0) rotate(90)" gradientUnits="userSpaceOnUse"><stop offset="0" stop-color="#000"/><stop offset=".25" stop-color="#313131"/><stop offset=".5" stop-color="#8e8e8f"/><stop offset=".75" stop-color="#313131"/><stop offset="1" stop-color="#000"/></linearGradient><linearGradient id="linear-gradient-13" x1="131.16" y1="308.97" x2="413.64" y2="235.83" gradientTransform="translate(544.8 0) rotate(90)" gradientUnits="userSpaceOnUse"><stop offset="0" stop-color="#000"/><stop offset=".25" stop-color="#2f2f2f"/><stop offset=".5" stop-color="#8f9091"/><stop offset=".75" stop-color="#2f2f2f"/><stop offset="1" stop-color="#000"/></linearGradient><linearGradient id="linear-gradient-14" x1="126.73" y1="314.08" x2="418.06" y2="230.72" gradientTransform="translate(544.8 0) rotate(90)" gradientUnits="userSpaceOnUse"><stop offset="0" stop-color="#000"/><stop offset=".25" stop-color="#2d2d2d"/><stop offset=".5" stop-color="#919293"/><stop offset=".75" stop-color="#2d2d2d"/><stop offset="1" stop-color="#000"/></linearGradient><linearGradient id="linear-gradient-15" x1="122.48" y1="319.44" x2="422.31" y2="225.37" gradientTransform="translate(544.8 0) rotate(90)" gradientUnits="userSpaceOnUse"><stop offset="0" stop-color="#000"/><stop offset=".25" stop-color="#2b2b2b"/><stop offset=".5" stop-color="#939395"/><stop offset=".75" stop-color="#2b2b2b"/><stop offset="1" stop-color="#000"/></linearGradient><linearGradient id="linear-gradient-16" x1="118.41" y1="325.03" x2="426.38" y2="219.77" gradientTransform="translate(544.8 0) rotate(90)" gradientUnits="userSpaceOnUse"><stop offset="0" stop-color="#000"/><stop offset=".25" stop-color="#2a2a2a"/><stop offset=".5" stop-color="#959596"/><stop offset=".75" stop-color="#2a2a2a"/><stop offset="1" stop-color="#000"/></linearGradient><linearGradient id="linear-gradient-17" x1="114.53" y1="330.87" x2="430.26" y2="213.93" gradientTransform="translate(544.8 0) rotate(90)" gradientUnits="userSpaceOnUse"><stop offset="0" stop-color="#000"/><stop offset=".25" stop-color="#282828"/><stop offset=".5" stop-color="#979798"/><stop offset=".75" stop-color="#282828"/><stop offset="1" stop-color="#000"/></linearGradient><linearGradient id="linear-gradient-18" x1="110.86" y1="336.93" x2="433.94" y2="207.87" gradientTransform="translate(544.8 0) rotate(90)" gradientUnits="userSpaceOnUse"><stop offset="0" stop-color="#000"/><stop offset=".25" stop-color="#262626"/><stop offset=".5" stop-color="#99999a"/><stop offset=".75" stop-color="#262626"/><stop offset="1" stop-color="#000"/></linearGradient><linearGradient id="linear-gradient-19" x1="107.39" y1="343.21" x2="437.4" y2="201.59" gradientTransform="translate(544.8 0) rotate(90)" gradientUnits="userSpaceOnUse"><stop offset="0" stop-color="#000"/><stop offset=".25" stop-color="#232323"/><stop offset=".5" stop-color="#9a9b9b"/><stop offset=".75" stop-color="#242424"/><stop offset="1" stop-color="#000"/></linearGradient><linearGradient id="linear-gradient-20" x1="104.14" y1="349.71" x2="440.65" y2="195.09" gradientTransform="translate(544.8 0) rotate(90)" gradientUnits="userSpaceOnUse"><stop offset="0" stop-color="#000"/><stop offset=".25" stop-color="#222"/><stop offset=".5" stop-color="#9c9d9d"/><stop offset=".75" stop-color="#222"/><stop offset="1" stop-color="#000"/></linearGradient><linearGradient id="linear-gradient-21" x1="101.12" y1="356.41" x2="443.67" y2="188.39" gradientTransform="translate(544.8 0) rotate(90)" gradientUnits="userSpaceOnUse"><stop offset="0" stop-color="#000"/><stop offset=".25" stop-color="#202020"/><stop offset=".5" stop-color="#9e9f9f"/><stop offset=".75" stop-color="#212121"/><stop offset="1" stop-color="#000"/></linearGradient><linearGradient id="linear-gradient-22" x1="98.34" y1="363.32" x2="446.46" y2="181.48" gradientTransform="translate(544.8 0) rotate(90)" gradientUnits="userSpaceOnUse"><stop offset="0" stop-color="#000"/><stop offset=".25" stop-color="#1e1e1e"/><stop offset=".5" stop-color="#a0a1a1"/><stop offset=".75" stop-color="#1f1f1f"/><stop offset="1" stop-color="#000"/></linearGradient><linearGradient id="linear-gradient-23" x1="95.79" y1="370.42" x2="449" y2="174.38" gradientTransform="translate(544.8 0) rotate(90)" gradientUnits="userSpaceOnUse"><stop offset="0" stop-color="#000"/><stop offset=".25" stop-color="#1c1c1c"/><stop offset=".5" stop-color="#a2a2a3"/><stop offset=".75" stop-color="#1d1d1d"/><stop offset="1" stop-color="#000"/></linearGradient><linearGradient id="linear-gradient-24" x1="93.51" y1="377.71" x2="451.29" y2="167.09" gradientTransform="translate(544.8 0) rotate(90)" gradientUnits="userSpaceOnUse"><stop offset="0" stop-color="#000"/><stop offset=".25" stop-color="#1b1b1b"/><stop offset=".5" stop-color="#a3a3a5"/><stop offset=".75" stop-color="#1c1c1c"/><stop offset="1" stop-color="#000"/></linearGradient><linearGradient id="linear-gradient-25" x1="91.47" y1="385.17" x2="453.32" y2="159.63" gradientTransform="translate(544.8 0) rotate(90)" gradientUnits="userSpaceOnUse"><stop offset="0" stop-color="#000"/><stop offset=".25" stop-color="#191919"/><stop offset=".5" stop-color="#a5a5a7"/><stop offset=".75" stop-color="#1a1a1a"/><stop offset="1" stop-color="#000"/></linearGradient><linearGradient id="linear-gradient-26" x1="89.71" y1="392.8" x2="455.08" y2="152" gradientTransform="translate(544.8 0) rotate(90)" gradientUnits="userSpaceOnUse"><stop offset="0" stop-color="#000"/><stop offset=".25" stop-color="#171717"/><stop offset=".5" stop-color="#a7a7a9"/><stop offset=".75" stop-color="#181818"/><stop offset="1" stop-color="#000"/></linearGradient><linearGradient id="linear-gradient-27" x1="88.22" y1="400.59" x2="456.57" y2="144.21" gradientTransform="translate(544.8 0) rotate(90)" gradientUnits="userSpaceOnUse"><stop offset="0" stop-color="#000"/><stop offset=".25" stop-color="#161616"/><stop offset=".5" stop-color="#a9a9ab"/><stop offset=".75" stop-color="#161616"/><stop offset="1" stop-color="#000"/></linearGradient><linearGradient id="linear-gradient-28" x1="87.01" y1="408.53" x2="457.78" y2="136.27" gradientTransform="translate(544.8 0) rotate(90)" gradientUnits="userSpaceOnUse"><stop offset="0" stop-color="#000"/><stop offset=".25" stop-color="#141414"/><stop offset=".5" stop-color="#ababad"/><stop offset=".75" stop-color="#141414"/><stop offset="1" stop-color="#000"/></linearGradient><linearGradient id="linear-gradient-29" x1="86.09" y1="416.61" x2="458.71" y2="128.18" gradientTransform="translate(544.8 0) rotate(90)" gradientUnits="userSpaceOnUse"><stop offset="0" stop-color="#000"/><stop offset=".25" stop-color="#121212"/><stop offset=".5" stop-color="#adadaf"/><stop offset=".75" stop-color="#121212"/><stop offset="1" stop-color="#000"/></linearGradient><linearGradient id="linear-gradient-30" x1="85.45" y1="424.83" x2="459.33" y2="119.97" gradientTransform="translate(544.8 0) rotate(90)" gradientUnits="userSpaceOnUse"><stop offset="0" stop-color="#000"/><stop offset=".25" stop-color="#111"/><stop offset=".5" stop-color="#afafb1"/><stop offset=".75" stop-color="#111"/><stop offset="1" stop-color="#000"/></linearGradient><linearGradient id="linear-gradient-31" x1="85.12" y1="433.17" x2="459.67" y2="111.63" gradientTransform="translate(544.8 0) rotate(90)" gradientUnits="userSpaceOnUse"><stop offset="0" stop-color="#000"/><stop offset=".25" stop-color="#0e0e0e"/><stop offset=".5" stop-color="#b0b0b3"/><stop offset=".75" stop-color="#0e0e0e"/><stop offset="1" stop-color="#000"/></linearGradient><linearGradient id="linear-gradient-32" x1="85.1" y1="441.62" x2="459.69" y2="103.18" gradientTransform="translate(544.8 0) rotate(90)" gradientUnits="userSpaceOnUse"><stop offset="0" stop-color="#000"/><stop offset=".25" stop-color="#0a0a0a"/><stop offset=".5" stop-color="#b2b3b5"/><stop offset=".75" stop-color="#0a0a0a"/><stop offset="1" stop-color="#000"/></linearGradient><linearGradient id="linear-gradient-33" x1="85.38" y1="450.17" x2="459.41" y2="94.63" gradientTransform="translate(544.8 0) rotate(90)" gradientUnits="userSpaceOnUse"><stop offset="0" stop-color="#000"/><stop offset=".25" stop-color="#050505"/><stop offset=".5" stop-color="#b4b5b7"/><stop offset=".75" stop-color="#050505"/><stop offset="1" stop-color="#000"/></linearGradient><linearGradient id="linear-gradient-34" x1="85.98" y1="458.82" x2="458.81" y2="85.98" gradientTransform="translate(544.8 0) rotate(90)" gradientUnits="userSpaceOnUse"><stop offset=".25" stop-color="#000"/><stop offset=".5" stop-color="#a3a3a3"/><stop offset=".75" stop-color="#000"/></linearGradient><linearGradient id="linear-gradient-35" x1="89.31" y1="455.48" x2="455.48" y2="89.31" gradientTransform="translate(544.8 0) rotate(90)" gradientUnits="userSpaceOnUse"><stop offset=".25" stop-color="#000"/><stop offset=".34" stop-color="#424243"/><stop offset=".5" stop-color="#b4b5b7"/><stop offset=".66" stop-color="#424243"/><stop offset=".75" stop-color="#000"/></linearGradient><linearGradient id="linear-gradient-36" x1="92.64" y1="452.15" x2="452.15" y2="92.65" gradientTransform="translate(544.8 0) rotate(90)" gradientUnits="userSpaceOnUse"><stop offset=".25" stop-color="#000"/><stop offset=".42" stop-color="#78787a"/><stop offset=".5" stop-color="#b2b2b5"/><stop offset=".58" stop-color="#78787a"/><stop offset=".75" stop-color="#000"/></linearGradient><linearGradient id="linear-gradient-37" x1="95.97" y1="448.82" x2="448.82" y2="95.98" gradientTransform="translate(544.8 0) rotate(90)" gradientUnits="userSpaceOnUse"><stop offset=".25" stop-color="#000"/><stop offset=".31" stop-color="#292929"/><stop offset=".44" stop-color="#88888b"/><stop offset=".5" stop-color="#afafb2"/><stop offset=".56" stop-color="#88888b"/><stop offset=".69" stop-color="#292929"/><stop offset=".75" stop-color="#000"/></linearGradient><linearGradient id="linear-gradient-38" x1="99.31" y1="445.49" x2="445.48" y2="99.31" gradientTransform="translate(544.8 0) rotate(90)" gradientUnits="userSpaceOnUse"><stop offset=".25" stop-color="#000"/><stop offset=".35" stop-color="#484849"/><stop offset=".45" stop-color="#909093"/><stop offset=".5" stop-color="#adadb0"/><stop offset=".55" stop-color="#909093"/><stop offset=".65" stop-color="#484849"/><stop offset=".75" stop-color="#000"/></linearGradient><linearGradient id="linear-gradient-39" x1="102.64" y1="442.16" x2="442.15" y2="102.64" gradientTransform="translate(544.8 0) rotate(90)" gradientUnits="userSpaceOnUse"><stop offset=".25" stop-color="#000"/><stop offset=".37" stop-color="#5a5a5b"/><stop offset=".46" stop-color="#949496"/><stop offset=".5" stop-color="#ababae"/><stop offset=".54" stop-color="#949496"/><stop offset=".63" stop-color="#5a5a5b"/><stop offset=".75" stop-color="#000"/></linearGradient><linearGradient id="linear-gradient-40" x1="105.97" y1="438.82" x2="438.82" y2="105.97" gradientTransform="translate(544.8 0) rotate(90)" gradientUnits="userSpaceOnUse"><stop offset=".25" stop-color="#000"/><stop offset=".28" stop-color="#171718"/><stop offset=".39" stop-color="#646467"/><stop offset=".46" stop-color="#959598"/><stop offset=".5" stop-color="#a8a8ac"/><stop offset=".54" stop-color="#959598"/><stop offset=".61" stop-color="#646467"/><stop offset=".72" stop-color="#171718"/><stop offset=".75" stop-color="#000"/></linearGradient><linearGradient id="linear-gradient-41" x1="109.3" y1="435.49" x2="435.49" y2="109.31" gradientTransform="translate(544.8 0) rotate(90)" gradientUnits="userSpaceOnUse"><stop offset=".25" stop-color="#000"/><stop offset=".3" stop-color="#292929"/><stop offset=".4" stop-color="#6c6c6e"/><stop offset=".47" stop-color="#959598"/><stop offset=".5" stop-color="#a6a6a9"/><stop offset=".53" stop-color="#959598"/><stop offset=".6" stop-color="#6c6c6e"/><stop offset=".7" stop-color="#292929"/><stop offset=".75" stop-color="#000"/></linearGradient><linearGradient id="linear-gradient-42" x1="112.63" y1="432.16" x2="432.16" y2="112.64" gradientTransform="translate(544.8 0) rotate(90)" gradientUnits="userSpaceOnUse"><stop offset=".25" stop-color="#000"/><stop offset=".32" stop-color="#363637"/><stop offset=".41" stop-color="#717173"/><stop offset=".47" stop-color="#969698"/><stop offset=".5" stop-color="#a4a4a7"/><stop offset=".53" stop-color="#969698"/><stop offset=".59" stop-color="#717173"/><stop offset=".68" stop-color="#363637"/><stop offset=".75" stop-color="#000"/></linearGradient><linearGradient id="linear-gradient-43" x1="115.97" y1="428.83" x2="428.83" y2="115.97" gradientTransform="translate(544.8 0) rotate(90)" gradientUnits="userSpaceOnUse"><stop offset=".25" stop-color="#000"/><stop offset=".33" stop-color="#404041"/><stop offset=".41" stop-color="#747477"/><stop offset=".47" stop-color="#959598"/><stop offset=".5" stop-color="#a2a2a5"/><stop offset=".53" stop-color="#959598"/><stop offset=".59" stop-color="#747477"/><stop offset=".67" stop-color="#404041"/><stop offset=".75" stop-color="#000"/></linearGradient><linearGradient id="linear-gradient-44" x1="119.3" y1="425.5" x2="425.49" y2="119.3" gradientTransform="translate(544.8 0) rotate(90)" gradientUnits="userSpaceOnUse"><stop offset=".25" stop-color="#000"/><stop offset=".26" stop-color="#060606"/><stop offset=".34" stop-color="#474748"/><stop offset=".41" stop-color="#777779"/><stop offset=".47" stop-color="#949497"/><stop offset=".5" stop-color="#a0a0a3"/><stop offset=".53" stop-color="#949497"/><stop offset=".59" stop-color="#777779"/><stop offset=".66" stop-color="#474748"/><stop offset=".74" stop-color="#060606"/><stop offset=".75" stop-color="#000"/></linearGradient><linearGradient id="linear-gradient-45" x1="122.63" y1="422.16" x2="422.16" y2="122.64" gradientTransform="translate(544.8 0) rotate(90)" gradientUnits="userSpaceOnUse"><stop offset=".25" stop-color="#000"/><stop offset=".27" stop-color="#111"/><stop offset=".35" stop-color="#4d4d4e"/><stop offset=".42" stop-color="#79797b"/><stop offset=".47" stop-color="#949496"/><stop offset=".5" stop-color="#9e9ea1"/><stop offset=".53" stop-color="#949496"/><stop offset=".58" stop-color="#79797b"/><stop offset=".65" stop-color="#4d4d4e"/><stop offset=".73" stop-color="#111"/><stop offset=".75" stop-color="#000"/></linearGradient><linearGradient id="linear-gradient-46" x1="125.96" y1="418.83" x2="418.83" y2="125.97" gradientTransform="translate(544.8 0) rotate(90)" gradientUnits="userSpaceOnUse"><stop offset=".25" stop-color="#000"/><stop offset=".28" stop-color="#191a1a"/><stop offset=".36" stop-color="#515152"/><stop offset=".42" stop-color="#797a7b"/><stop offset=".47" stop-color="#919294"/><stop offset=".5" stop-color="#9b9c9e"/><stop offset=".53" stop-color="#919294"/><stop offset=".58" stop-color="#797a7b"/><stop offset=".64" stop-color="#515152"/><stop offset=".72" stop-color="#191a1a"/><stop offset=".75" stop-color="#000"/></linearGradient><linearGradient id="linear-gradient-47" x1="129.29" y1="415.5" x2="415.5" y2="129.3" gradientTransform="translate(544.8 0) rotate(90)" gradientUnits="userSpaceOnUse"><stop offset=".25" stop-color="#000"/><stop offset=".29" stop-color="#212122"/><stop offset=".36" stop-color="#545456"/><stop offset=".42" stop-color="#79797c"/><stop offset=".47" stop-color="#909093"/><stop offset=".5" stop-color="#99999c"/><stop offset=".53" stop-color="#909093"/><stop offset=".58" stop-color="#79797c"/><stop offset=".64" stop-color="#545456"/><stop offset=".71" stop-color="#212122"/><stop offset=".75" stop-color="#000"/></linearGradient><linearGradient id="linear-gradient-48" x1="132.63" y1="412.17" x2="412.16" y2="132.63" gradientTransform="translate(544.8 0) rotate(90)" gradientUnits="userSpaceOnUse"><stop offset=".25" stop-color="#000"/><stop offset=".3" stop-color="#272728"/><stop offset=".36" stop-color="#575759"/><stop offset=".42" stop-color="#7a7a7c"/><stop offset=".47" stop-color="#8f8f92"/><stop offset=".5" stop-color="#97979a"/><stop offset=".53" stop-color="#8f8f92"/><stop offset=".58" stop-color="#7a7a7c"/><stop offset=".64" stop-color="#575759"/><stop offset=".7" stop-color="#272728"/><stop offset=".75" stop-color="#000"/></linearGradient><linearGradient id="linear-gradient-49" x1="135.96" y1="408.84" x2="408.83" y2="135.96" gradientTransform="translate(544.8 0) rotate(90)" gradientUnits="userSpaceOnUse"><stop offset=".25" stop-color="#000"/><stop offset=".3" stop-color="#2c2c2d"/><stop offset=".37" stop-color="#59595b"/><stop offset=".42" stop-color="#79797c"/><stop offset=".47" stop-color="#8d8d90"/><stop offset=".5" stop-color="#959598"/><stop offset=".53" stop-color="#8d8d90"/><stop offset=".58" stop-color="#79797c"/><stop offset=".63" stop-color="#59595b"/><stop offset=".7" stop-color="#2c2c2d"/><stop offset=".75" stop-color="#000"/></linearGradient><linearGradient id="linear-gradient-50" x1="139.29" y1="405.51" x2="405.5" y2="139.3" gradientTransform="translate(544.8 0) rotate(90)" gradientUnits="userSpaceOnUse"><stop offset=".25" stop-color="#000"/><stop offset=".31" stop-color="#303031"/><stop offset=".37" stop-color="#5a5a5b"/><stop offset=".42" stop-color="#78787b"/><stop offset=".47" stop-color="#8b8b8e"/><stop offset=".5" stop-color="#929295"/><stop offset=".53" stop-color="#8b8b8e"/><stop offset=".58" stop-color="#78787b"/><stop offset=".63" stop-color="#5a5a5b"/><stop offset=".69" stop-color="#303031"/><stop offset=".75" stop-color="#000"/></linearGradient><linearGradient id="linear-gradient-51" x1="142.62" y1="402.17" x2="402.17" y2="142.63" gradientTransform="translate(544.8 0) rotate(90)" gradientUnits="userSpaceOnUse"><stop offset=".25" stop-color="#000"/><stop offset=".31" stop-color="#333334"/><stop offset=".37" stop-color="#5b5b5d"/><stop offset=".42" stop-color="#78787a"/><stop offset=".47" stop-color="#89898c"/><stop offset=".5" stop-color="#909093"/><stop offset=".53" stop-color="#89898c"/><stop offset=".58" stop-color="#78787a"/><stop offset=".63" stop-color="#5b5b5d"/><stop offset=".69" stop-color="#333334"/><stop offset=".75" stop-color="#000"/></linearGradient><linearGradient id="linear-gradient-52" x1="145.95" y1="398.84" x2="398.84" y2="145.96" gradientTransform="translate(544.8 0) rotate(90)" gradientUnits="userSpaceOnUse"><stop offset=".25" stop-color="#000"/><stop offset=".26" stop-color="#050505"/><stop offset=".32" stop-color="#363637"/><stop offset=".37" stop-color="#5c5c5e"/><stop offset=".42" stop-color="#77777a"/><stop offset=".47" stop-color="#88888b"/><stop offset=".5" stop-color="#8e8e91"/><stop offset=".53" stop-color="#88888b"/><stop offset=".58" stop-color="#77777a"/><stop offset=".63" stop-color="#5c5c5e"/><stop offset=".68" stop-color="#363637"/><stop offset=".74" stop-color="#050505"/><stop offset=".75" stop-color="#000"/></linearGradient><linearGradient id="linear-gradient-53" x1="149.29" y1="395.51" x2="395.51" y2="149.29" gradientTransform="translate(544.8 0) rotate(90)" gradientUnits="userSpaceOnUse"><stop offset=".25" stop-color="#000"/><stop offset=".26" stop-color="#0a0a0a"/><stop offset=".32" stop-color="#383839"/><stop offset=".37" stop-color="#5c5c5e"/><stop offset=".42" stop-color="#757579"/><stop offset=".47" stop-color="#858589"/><stop offset=".5" stop-color="#8b8b8f"/><stop offset=".53" stop-color="#858589"/><stop offset=".58" stop-color="#757579"/><stop offset=".63" stop-color="#5c5c5e"/><stop offset=".68" stop-color="#383839"/><stop offset=".74" stop-color="#0a0a0a"/><stop offset=".75" stop-color="#000"/></linearGradient><linearGradient id="linear-gradient-54" x1="152.62" y1="392.18" x2="392.17" y2="152.62" gradientTransform="translate(544.8 0) rotate(90)" gradientUnits="userSpaceOnUse"><stop offset=".25" stop-color="#000"/><stop offset=".27" stop-color="#0e0e0e"/><stop offset=".32" stop-color="#3a3a3b"/><stop offset=".37" stop-color="#5c5c5f"/><stop offset=".42" stop-color="#747478"/><stop offset=".46" stop-color="#838387"/><stop offset=".5" stop-color="#89898d"/><stop offset=".54" stop-color="#838387"/><stop offset=".58" stop-color="#747478"/><stop offset=".63" stop-color="#5c5c5f"/><stop offset=".68" stop-color="#3a3a3b"/><stop offset=".73" stop-color="#0e0e0e"/><stop offset=".75" stop-color="#000"/></linearGradient><linearGradient id="linear-gradient-55" x1="155.95" y1="388.85" x2="388.84" y2="155.96" gradientTransform="translate(544.8 0) rotate(90)" gradientUnits="userSpaceOnUse"><stop offset=".25" stop-color="#000"/><stop offset=".27" stop-color="#111112"/><stop offset=".32" stop-color="#3b3b3d"/><stop offset=".37" stop-color="#5c5c5f"/><stop offset=".42" stop-color="#737377"/><stop offset=".46" stop-color="#828285"/><stop offset=".5" stop-color="#87878b"/><stop offset=".54" stop-color="#828285"/><stop offset=".58" stop-color="#737377"/><stop offset=".63" stop-color="#5c5c5f"/><stop offset=".68" stop-color="#3b3b3d"/><stop offset=".73" stop-color="#111112"/><stop offset=".75" stop-color="#000"/></linearGradient><linearGradient id="linear-gradient-56" x1="159.28" y1="385.51" x2="385.51" y2="159.29" gradientTransform="translate(544.8 0) rotate(90)" gradientUnits="userSpaceOnUse"><stop offset=".25" stop-color="#000"/><stop offset=".27" stop-color="#141415"/><stop offset=".32" stop-color="#3c3c3e"/><stop offset=".37" stop-color="#5c5c5f"/><stop offset=".42" stop-color="#727276"/><stop offset=".46" stop-color="#808084"/><stop offset=".5" stop-color="#858589"/><stop offset=".54" stop-color="#808084"/><stop offset=".58" stop-color="#727276"/><stop offset=".63" stop-color="#5c5c5f"/><stop offset=".68" stop-color="#3c3c3e"/><stop offset=".73" stop-color="#141415"/><stop offset=".75" stop-color="#000"/></linearGradient><linearGradient id="linear-gradient-57" x1="162.62" y1="382.18" x2="382.18" y2="162.62" gradientTransform="translate(544.8 0) rotate(90)" gradientUnits="userSpaceOnUse"><stop offset=".25" stop-color="#000"/><stop offset=".28" stop-color="#171718"/><stop offset=".32" stop-color="#3d3d3f"/><stop offset=".37" stop-color="#5c5b5e"/><stop offset=".42" stop-color="#717075"/><stop offset=".46" stop-color="#7e7d82"/><stop offset=".5" stop-color="#838287"/><stop offset=".54" stop-color="#7e7d82"/><stop offset=".58" stop-color="#717075"/><stop offset=".63" stop-color="#5c5b5e"/><stop offset=".68" stop-color="#3d3d3f"/><stop offset=".72" stop-color="#171718"/><stop offset=".75" stop-color="#000"/></linearGradient><linearGradient id="linear-gradient-58" x1="165.95" y1="378.85" x2="378.85" y2="165.95" gradientTransform="translate(544.8 0) rotate(90)" gradientUnits="userSpaceOnUse"><stop offset=".25" stop-color="#000"/><stop offset=".28" stop-color="#19191a"/><stop offset=".32" stop-color="#3e3e40"/><stop offset=".37" stop-color="#5b5a5e"/><stop offset=".42" stop-color="#706f73"/><stop offset=".46" stop-color="#7c7b80"/><stop offset=".5" stop-color="#818085"/><stop offset=".54" stop-color="#7c7b80"/><stop offset=".58" stop-color="#706f73"/><stop offset=".63" stop-color="#5b5a5e"/><stop offset=".68" stop-color="#3e3e40"/><stop offset=".72" stop-color="#19191a"/><stop offset=".75" stop-color="#000"/></linearGradient><linearGradient id="linear-gradient-59" x1="169.28" y1="375.52" x2="375.51" y2="169.28" gradientTransform="translate(544.8 0) rotate(90)" gradientUnits="userSpaceOnUse"><stop offset=".25" stop-color="#000"/><stop offset=".28" stop-color="#1a1a1b"/><stop offset=".32" stop-color="#3e3e40"/><stop offset=".37" stop-color="#5a5a5c"/><stop offset=".41" stop-color="#6e6e71"/><stop offset=".46" stop-color="#7a7a7d"/><stop offset=".5" stop-color="#7f7f82"/><stop offset=".54" stop-color="#7a7a7d"/><stop offset=".59" stop-color="#6e6e71"/><stop offset=".63" stop-color="#5a5a5c"/><stop offset=".68" stop-color="#3e3e40"/><stop offset=".72" stop-color="#1a1a1b"/><stop offset=".75" stop-color="#000"/></linearGradient><linearGradient id="linear-gradient-60" x1="172.61" y1="372.19" x2="372.18" y2="172.61" gradientTransform="translate(544.8 0) rotate(90)" gradientUnits="userSpaceOnUse"><stop offset=".25" stop-color="#000"/><stop offset=".28" stop-color="#1c1c1d"/><stop offset=".32" stop-color="#3e3e40"/><stop offset=".37" stop-color="#5a595c"/><stop offset=".41" stop-color="#6d6c70"/><stop offset=".46" stop-color="#79787c"/><stop offset=".5" stop-color="#7d7c80"/><stop offset=".54" stop-color="#79787c"/><stop offset=".59" stop-color="#6d6c70"/><stop offset=".63" stop-color="#5a595c"/><stop offset=".68" stop-color="#3e3e40"/><stop offset=".72" stop-color="#1c1c1d"/><stop offset=".75" stop-color="#000"/></linearGradient><linearGradient id="linear-gradient-61" x1="175.94" y1="368.85" x2="368.85" y2="175.95" gradientTransform="translate(544.8 0) rotate(90)" gradientUnits="userSpaceOnUse"><stop offset=".25" stop-color="#000"/><stop offset=".28" stop-color="#1e1e1f"/><stop offset=".32" stop-color="#3f3f41"/><stop offset=".37" stop-color="#59585c"/><stop offset=".41" stop-color="#6c6b6f"/><stop offset=".45" stop-color="#77767b"/><stop offset=".5" stop-color="#7b7a7f"/><stop offset=".55" stop-color="#77767b"/><stop offset=".59" stop-color="#6c6b6f"/><stop offset=".63" stop-color="#59585c"/><stop offset=".68" stop-color="#3f3f41"/><stop offset=".72" stop-color="#1e1e1f"/><stop offset=".75" stop-color="#000"/></linearGradient><linearGradient id="linear-gradient-62" x1="179.27" y1="365.52" x2="365.52" y2="179.28" gradientTransform="translate(544.8 0) rotate(90)" gradientUnits="userSpaceOnUse"><stop offset=".25" stop-color="#000"/><stop offset=".28" stop-color="#1f1f20"/><stop offset=".32" stop-color="#3f3f41"/><stop offset=".36" stop-color="#58585b"/><stop offset=".41" stop-color="#6a696e"/><stop offset=".45" stop-color="#757479"/><stop offset=".5" stop-color="#79787d"/><stop offset=".55" stop-color="#757479"/><stop offset=".59" stop-color="#6a696e"/><stop offset=".64" stop-color="#58585b"/><stop offset=".68" stop-color="#3f3f41"/><stop offset=".72" stop-color="#1f1f20"/><stop offset=".75" stop-color="#000"/></linearGradient><linearGradient id="linear-gradient-63" x1="182.61" y1="362.19" x2="362.19" y2="182.61" gradientTransform="translate(544.8 0) rotate(90)" gradientUnits="userSpaceOnUse"><stop offset=".25" stop-color="#000"/><stop offset=".28" stop-color="#1f1f20"/><stop offset=".32" stop-color="#3e3e40"/><stop offset=".36" stop-color="#565659"/><stop offset=".4" stop-color="#68686b"/><stop offset=".45" stop-color="#727276"/><stop offset=".5" stop-color="#76767a"/><stop offset=".55" stop-color="#727276"/><stop offset=".6" stop-color="#68686b"/><stop offset=".64" stop-color="#565659"/><stop offset=".68" stop-color="#3e3e40"/><stop offset=".72" stop-color="#1f1f20"/><stop offset=".75" stop-color="#000"/></linearGradient><linearGradient id="linear-gradient-64" x1="185.94" y1="358.86" x2="358.85" y2="185.94" gradientTransform="translate(544.8 0) rotate(90)" gradientUnits="userSpaceOnUse"><stop offset=".25" stop-color="#000"/><stop offset=".28" stop-color="#201f21"/><stop offset=".32" stop-color="#3e3d40"/><stop offset=".36" stop-color="#555558"/><stop offset=".4" stop-color="#66656a"/><stop offset=".45" stop-color="#706f74"/><stop offset=".5" stop-color="#747378"/><stop offset=".55" stop-color="#706f74"/><stop offset=".6" stop-color="#66656a"/><stop offset=".64" stop-color="#555558"/><stop offset=".68" stop-color="#3e3d40"/><stop offset=".72" stop-color="#201f21"/><stop offset=".75" stop-color="#000"/></linearGradient><linearGradient id="linear-gradient-65" x1="189.27" y1="355.53" x2="355.52" y2="189.28" gradientTransform="translate(544.8 0) rotate(90)" gradientUnits="userSpaceOnUse"><stop offset=".25" stop-color="#000"/><stop offset=".26" stop-color="#040404"/><stop offset=".3" stop-color="#232323"/><stop offset=".34" stop-color="#3a3a3a"/><stop offset=".39" stop-color="#4b4b4b"/><stop offset=".44" stop-color="#555"/><stop offset=".5" stop-color="#595959"/><stop offset=".56" stop-color="#555"/><stop offset=".61" stop-color="#4b4b4b"/><stop offset=".66" stop-color="#3a3a3a"/><stop offset=".7" stop-color="#232323"/><stop offset=".74" stop-color="#040404"/><stop offset=".75" stop-color="#000"/></linearGradient><linearGradient id="linear-gradient-66" x1="179.81" y1="272.4" x2="364.99" y2="272.4" gradientTransform="translate(544.8 0) rotate(90)" gradientUnits="userSpaceOnUse"><stop offset="0" stop-color="#e1e1e1"/><stop offset="1" stop-color="#adadad"/></linearGradient><linearGradient id="linear-gradient-67" x1="315.22" y1="315.22" x2="229.66" y2="229.67" gradientTransform="translate(544.8 0) rotate(90)" gradientUnits="userSpaceOnUse"><stop offset="0" stop-color="#d4d4d4"/><stop offset="1" stop-color="#bababa"/></linearGradient></defs><g id="Objects"><g class="cls-69"><path class="cls-1" d="m544.79,272.4C544.79,121.95,422.84,0,272.4,0,121.97,0,0,121.95,0,272.4c0,150.44,121.97,272.41,272.4,272.41,150.44,0,272.39-121.97,272.39-272.41Zm-543.4,0C1.39,122.72,122.73,1.38,272.4,1.38c149.68,0,271.01,121.34,271.01,271.02s-121.33,271.02-271.01,271.02c-149.66,0-271.01-121.35-271.01-271.02Z"/><path d="m392.76,272.4c0-66.48-53.88-120.36-120.36-120.36-66.47,0-120.37,53.89-120.37,120.36s53.9,120.38,120.37,120.38,120.36-53.9,120.36-120.38Zm-127.63,0c0-4.02,3.25-7.27,7.27-7.27s7.27,3.25,7.27,7.27-3.25,7.27-7.27,7.27-7.27-3.25-7.27-7.27Z"/><path class="cls-7" d="m544.01,272.4c0-150.02-121.6-271.62-271.61-271.62C122.4.78.78,122.38.78,272.4s121.62,271.62,271.62,271.62,271.61-121.62,271.61-271.62Zm-278.88,0c0-4.02,3.25-7.27,7.27-7.27s7.27,3.25,7.27,7.27-3.25,7.27-7.27,7.27-7.27-3.25-7.27-7.27Z"/><path class="cls-5" d="m272.4,362.19c-49.59,0-89.78-40.2-89.78-89.79s40.19-89.78,89.78-89.78c49.58,0,89.77,40.2,89.77,89.78s-40.19,89.79-89.77,89.79Z"/><path class="cls-6" d="m272.4,367.8c-52.68,0-95.39-42.72-95.39-95.4s42.71-95.39,95.39-95.39,95.38,42.71,95.38,95.39-42.71,95.4-95.38,95.4Z"/><path class="cls-10" d="m272.4,373.4c-55.78,0-101-45.22-101-101s45.22-100.99,100.99-100.99,100.99,45.21,100.99,100.99-45.21,101-100.99,101Z"/><path class="cls-8" d="m272.4,379.01c-58.87,0-106.6-47.74-106.6-106.61,0-58.88,47.73-106.6,106.6-106.6s106.6,47.73,106.6,106.6c0,58.88-47.72,106.61-106.6,106.61Z"/><path class="cls-9" d="m272.4,384.62c-61.97,0-112.21-50.25-112.21-112.22s50.24-112.21,112.21-112.21,112.21,50.24,112.21,112.21-50.23,112.22-112.21,112.22Z"/><path class="cls-3" d="m272.4,390.23c-65.07,0-117.82-52.76-117.82-117.83s52.75-117.82,117.82-117.82,117.81,52.75,117.81,117.82c0,65.07-52.75,117.83-117.81,117.83Z"/><path class="cls-4" d="m272.4,395.84c-68.17,0-123.43-55.27-123.43-123.44s55.26-123.43,123.43-123.43,123.42,55.26,123.42,123.43c0,68.17-55.25,123.44-123.42,123.44Z"/><path class="cls-51" d="m272.4,401.45c-71.26,0-129.04-57.78-129.04-129.04s57.77-129.04,129.04-129.04,129.03,57.77,129.03,129.04-57.76,129.04-129.03,129.04Z"/><path class="cls-52" d="m272.4,407.05c-74.36,0-134.64-60.29-134.64-134.65,0-74.36,60.28-134.64,134.64-134.64s134.64,60.28,134.64,134.64-60.28,134.65-134.64,134.65Z"/><path class="cls-50" d="m272.4,412.66c-77.46,0-140.25-62.8-140.25-140.26s62.79-140.25,140.25-140.25,140.25,62.79,140.25,140.25c0,77.46-62.79,140.26-140.25,140.26Z"/><path class="cls-49" d="m272.4,418.27c-80.56,0-145.86-65.31-145.86-145.87s65.3-145.86,145.86-145.86,145.85,65.3,145.85,145.86-65.3,145.87-145.85,145.87Z"/><path class="cls-39" d="m272.4,423.88c-83.66,0-151.47-67.82-151.47-151.48s67.81-151.47,151.47-151.47,151.47,67.81,151.47,151.47-67.81,151.48-151.47,151.48Z"/><path class="cls-45" d="m272.4,429.48c-86.75,0-157.08-70.33-157.08-157.08,0-86.75,70.33-157.08,157.08-157.08,86.75,0,157.07,70.32,157.07,157.08s-70.32,157.08-157.07,157.08Z"/><path class="cls-47" d="m272.4,435.09c-89.85,0-162.69-72.84-162.69-162.69s72.84-162.68,162.68-162.68,162.68,72.83,162.68,162.68-72.83,162.69-162.68,162.69Z"/><path class="cls-48" d="m272.4,440.7c-92.95,0-168.29-75.35-168.29-168.3s75.35-168.29,168.29-168.29,168.29,75.34,168.29,168.29-75.34,168.3-168.29,168.3Z"/><path class="cls-40" d="m272.4,446.31c-96.04,0-173.9-77.86-173.9-173.91s77.86-173.9,173.9-173.9,173.89,77.85,173.89,173.9-77.85,173.91-173.89,173.91Z"/><path class="cls-46" d="m272.4,451.92c-99.14,0-179.51-80.37-179.51-179.52,0-99.15,80.37-179.51,179.51-179.51s179.5,80.36,179.5,179.51-80.36,179.51-179.5,179.52Z"/><path class="cls-42" d="m272.4,457.52c-102.24,0-185.12-82.88-185.12-185.12s82.88-185.12,185.12-185.12,185.11,82.88,185.11,185.12-82.87,185.12-185.11,185.12Z"/><path class="cls-43" d="m272.4,463.13c-105.34,0-190.73-85.39-190.73-190.73s85.39-190.72,190.73-190.72,190.72,85.38,190.72,190.72-85.38,190.73-190.72,190.73Z"/><path class="cls-41" d="m272.4,468.74c-108.43,0-196.33-87.91-196.33-196.34,0-108.44,87.9-196.33,196.33-196.33s196.33,87.9,196.33,196.33c0,108.43-87.89,196.34-196.33,196.34Z"/><path class="cls-44" d="m272.4,474.35c-111.53,0-201.94-90.42-201.94-201.95,0-111.54,90.41-201.94,201.94-201.94,111.53,0,201.94,90.41,201.94,201.94s-90.4,201.95-201.93,201.95Z"/><path class="cls-54" d="m272.4,479.96c-114.62,0-207.55-92.93-207.55-207.56s92.92-207.55,207.55-207.55,207.54,92.92,207.54,207.55-92.91,207.56-207.54,207.56Z"/><path class="cls-62" d="m272.4,485.56c-117.72,0-213.16-95.44-213.16-213.16,0-117.73,95.43-213.16,213.16-213.16s213.15,95.43,213.15,213.16-95.43,213.16-213.15,213.16Z"/><path class="cls-55" d="m272.4,491.17c-120.82,0-218.77-97.95-218.77-218.77,0-120.83,97.94-218.76,218.77-218.76s218.76,97.94,218.76,218.76-97.93,218.77-218.76,218.77Z"/><path class="cls-53" d="m272.4,496.78c-123.92,0-224.37-100.46-224.37-224.38S148.48,48.03,272.4,48.03c123.92,0,224.37,100.45,224.37,224.37s-100.45,224.38-224.37,224.38Z"/><path class="cls-63" d="m272.4,502.39c-127.01,0-229.98-102.97-229.98-229.99,0-127.02,102.97-229.98,229.98-229.98,127.02,0,229.98,102.96,229.98,229.98s-102.96,229.99-229.98,229.99Z"/><path class="cls-64" d="m272.4,508c-130.11,0-235.59-105.48-235.59-235.6S142.29,36.81,272.4,36.81s235.59,105.47,235.58,235.59c0,130.12-105.47,235.6-235.58,235.6Z"/><path class="cls-66" d="m272.4,513.6c-133.21,0-241.2-107.99-241.2-241.2,0-133.22,107.99-241.2,241.2-241.2,133.21,0,241.19,107.98,241.19,241.2s-107.98,241.2-241.19,241.2Z"/><path class="cls-68" d="m272.4,519.21c-136.31,0-246.81-110.5-246.81-246.81,0-136.32,110.5-246.81,246.81-246.81s246.8,110.49,246.8,246.81-110.49,246.81-246.8,246.81Z"/><path class="cls-67" d="m272.4,524.82c-139.41,0-252.42-113.01-252.42-252.42,0-139.41,113.01-252.41,252.42-252.41s252.41,113,252.41,252.41-113,252.42-252.41,252.42Z"/><path class="cls-65" d="m272.4,530.43c-142.5,0-258.02-115.52-258.02-258.03,0-142.51,115.52-258.02,258.02-258.02s258.02,115.51,258.02,258.02-115.51,258.03-258.02,258.03Z"/><path class="cls-59" d="m272.4,536.04c-145.6,0-263.63-118.03-263.63-263.64,0-145.61,118.03-263.63,263.63-263.63s263.62,118.02,263.62,263.63-118.02,263.64-263.62,263.64Z"/><path class="cls-57" d="m272.4,531.32c-143,0-258.92-115.92-258.92-258.92S129.4,13.48,272.4,13.48c143,0,258.91,115.91,258.91,258.92s-115.91,258.92-258.91,258.92Z"/><path class="cls-61" d="m272.4,526.61c-140.4,0-254.21-113.81-254.21-254.21S132,18.2,272.4,18.2c140.4,0,254.2,113.8,254.2,254.21s-113.8,254.21-254.2,254.21Z"/><path class="cls-58" d="m272.4,521.9c-137.79,0-249.5-111.71-249.5-249.5,0-137.8,111.7-249.49,249.5-249.49s249.49,111.69,249.49,249.49c0,137.79-111.69,249.5-249.49,249.5Z"/><path class="cls-56" d="m272.4,517.19c-135.19,0-244.78-109.59-244.78-244.79,0-135.2,109.59-244.78,244.78-244.78,135.19,0,244.78,109.58,244.78,244.78s-109.58,244.79-244.78,244.79Z"/><path class="cls-60" d="m272.4,512.48c-132.59,0-240.07-107.49-240.07-240.08S139.81,32.33,272.4,32.33s240.07,107.47,240.07,240.07-107.47,240.08-240.07,240.08Z"/><path class="cls-30" d="m272.4,507.77c-129.98,0-235.36-105.38-235.36-235.37,0-129.99,105.38-235.36,235.36-235.36,129.99,0,235.35,105.37,235.35,235.36s-105.36,235.36-235.35,235.37Z"/><path class="cls-29" d="m272.4,503.05c-127.38,0-230.65-103.27-230.65-230.65,0-127.39,103.26-230.65,230.65-230.64,127.39,0,230.64,103.25,230.64,230.64s-103.25,230.65-230.64,230.65Z"/><path class="cls-32" d="m272.4,498.34c-124.78,0-225.94-101.16-225.94-225.94S147.62,46.47,272.4,46.47s225.93,101.15,225.93,225.93c0,124.79-101.14,225.94-225.93,225.94Z"/><path class="cls-31" d="m272.4,493.63c-122.18,0-221.22-99.05-221.22-221.23,0-122.19,99.04-221.22,221.22-221.22,122.18,0,221.22,99.04,221.22,221.22,0,122.18-99.04,221.23-221.22,221.23Z"/><path class="cls-35" d="m272.4,488.92c-119.58,0-216.51-96.94-216.51-216.52,0-119.58,96.93-216.51,216.51-216.51,119.58,0,216.5,96.93,216.5,216.51,0,119.58-96.93,216.52-216.5,216.52Z"/><path class="cls-33" d="m272.4,484.2c-116.97,0-211.8-94.83-211.8-211.8S155.43,60.6,272.4,60.6s211.79,94.82,211.79,211.8-94.82,211.8-211.79,211.8Z"/><path class="cls-34" d="m272.4,479.49c-114.37,0-207.08-92.72-207.08-207.09,0-114.38,92.71-207.09,207.09-207.09s207.08,92.71,207.08,207.09c0,114.37-92.7,207.09-207.08,207.09Z"/><path class="cls-37" d="m272.4,474.78c-111.77,0-202.37-90.61-202.38-202.38,0-111.77,90.61-202.37,202.37-202.37s202.37,90.6,202.37,202.37-90.6,202.38-202.37,202.38Z"/><path class="cls-38" d="m272.4,470.07c-109.17,0-197.66-88.5-197.66-197.67s88.49-197.66,197.66-197.66,197.65,88.49,197.66,197.66c0,109.17-88.49,197.67-197.66,197.67Z"/><path class="cls-36" d="m272.4,465.36c-106.56,0-192.95-86.39-192.95-192.96,0-106.57,86.39-192.95,192.95-192.95,106.57,0,192.94,86.38,192.94,192.95s-86.38,192.96-192.94,192.96Z"/><path class="cls-20" d="m272.4,460.64c-103.96,0-188.24-84.28-188.24-188.24,0-103.97,84.28-188.24,188.24-188.24s188.23,84.27,188.23,188.24c0,103.97-84.27,188.24-188.23,188.24Z"/><path class="cls-18" d="m272.4,455.93c-101.36,0-183.53-82.17-183.53-183.53,0-101.36,82.17-183.52,183.53-183.52s183.52,82.16,183.52,183.52c0,101.36-82.16,183.53-183.52,183.53Z"/><path class="cls-19" d="m272.4,451.22c-98.76,0-178.82-80.06-178.82-178.82s80.06-178.81,178.81-178.81,178.81,80.05,178.81,178.81c0,98.76-80.05,178.82-178.8,178.82Z"/><path class="cls-16" d="m272.4,446.51c-96.16,0-174.1-77.95-174.1-174.11s77.95-174.1,174.1-174.1,174.09,77.94,174.09,174.1c0,96.16-77.94,174.11-174.09,174.11Z"/><path class="cls-17" d="m272.4,441.8c-93.55,0-169.39-75.84-169.39-169.4s75.84-169.39,169.39-169.39,169.38,75.83,169.38,169.39-75.83,169.4-169.38,169.4Z"/><path class="cls-14" d="m272.4,437.08c-90.95,0-164.68-73.73-164.68-164.68,0-90.95,73.73-164.68,164.68-164.68s164.67,73.72,164.67,164.68c0,90.95-73.72,164.68-164.67,164.68Z"/><path class="cls-15" d="m272.4,432.37c-88.35,0-159.97-71.62-159.97-159.97s71.62-159.96,159.97-159.96,159.96,71.62,159.96,159.96c0,88.35-71.61,159.97-159.96,159.97Z"/><path class="cls-12" d="m272.4,427.66c-85.75,0-155.25-69.51-155.25-155.26,0-85.75,69.51-155.25,155.25-155.25s155.25,69.5,155.25,155.25-69.5,155.26-155.25,155.26Z"/><path class="cls-13" d="m272.4,422.95c-83.15,0-150.54-67.4-150.54-150.55,0-83.14,67.4-150.54,150.54-150.54s150.54,67.4,150.54,150.54c0,83.15-67.4,150.55-150.54,150.55Z"/><path class="cls-11" d="m272.4,418.24c-80.54,0-145.83-65.29-145.83-145.84s65.29-145.83,145.83-145.83,145.82,65.28,145.82,145.83-65.28,145.84-145.82,145.84Z"/><path class="cls-26" d="m272.4,413.53c-77.94,0-141.12-63.18-141.12-141.12,0-77.94,63.18-141.12,141.12-141.12,77.94,0,141.11,63.18,141.11,141.12,0,77.94-63.17,141.12-141.11,141.12Z"/><path class="cls-28" d="m272.4,408.81c-75.34,0-136.4-61.07-136.4-136.41s61.07-136.4,136.4-136.4,136.4,61.07,136.4,136.4-61.07,136.41-136.4,136.41Z"/><path class="cls-27" d="m272.4,404.1c-72.74,0-131.69-58.96-131.69-131.7s58.96-131.69,131.69-131.69,131.69,58.96,131.69,131.69c0,72.74-58.96,131.7-131.69,131.7Z"/><path class="cls-23" d="m272.4,399.39c-70.13,0-126.98-56.85-126.98-126.99s56.85-126.98,126.98-126.98c70.13,0,126.97,56.85,126.97,126.98s-56.84,126.99-126.97,126.99Z"/><path class="cls-22" d="m272.4,394.68c-67.53,0-122.27-54.75-122.27-122.28,0-67.53,54.74-122.27,122.27-122.27s122.26,54.74,122.26,122.27c0,67.53-54.74,122.28-122.26,122.28Z"/><path class="cls-25" d="m272.4,389.96c-64.93,0-117.56-52.63-117.56-117.56,0-64.92,52.63-117.56,117.56-117.56s117.55,52.63,117.55,117.56-52.63,117.56-117.55,117.56Z"/><path class="cls-2" d="m272.4,392.34c-66.24,0-119.93-53.7-119.93-119.94s53.7-119.93,119.93-119.93,119.92,53.69,119.92,119.93c0,66.24-53.69,119.94-119.92,119.94Z"/><path class="cls-2" d="m272.4,412.87c-77.57,0-140.46-62.89-140.46-140.47,0-77.58,62.89-140.46,140.46-140.46s140.45,62.88,140.45,140.46-62.88,140.47-140.45,140.47Z"/><path class="cls-2" d="m272.4,433.39c-88.91,0-160.99-72.08-160.99-160.99s72.08-160.99,160.99-160.99c88.91,0,160.98,72.07,160.98,160.99s-72.07,160.99-160.98,160.99Z"/><path class="cls-2" d="m272.4,453.92c-100.25,0-181.52-81.27-181.52-181.52s81.27-181.52,181.52-181.52,181.51,81.26,181.51,181.52-81.26,181.52-181.51,181.52Z"/><path class="cls-2" d="m272.4,474.45c-111.58,0-202.05-90.46-202.05-202.05,0-111.59,90.46-202.04,202.05-202.04s202.04,90.45,202.04,202.04-90.45,202.05-202.04,202.05Z"/><path class="cls-2" d="m272.4,494.98c-122.92,0-222.57-99.65-222.57-222.58,0-122.93,99.65-222.57,222.58-222.57s222.56,99.64,222.56,222.57-99.64,222.58-222.57,222.58Z"/><path class="cls-2" d="m272.4,515.51c-134.26,0-243.1-108.84-243.1-243.11S138.14,29.3,272.4,29.3s243.1,108.83,243.1,243.1-108.83,243.11-243.1,243.11Z"/><path class="cls-2" d="m272.4,536.04c-145.6,0-263.63-118.03-263.63-263.64,0-145.61,118.03-263.63,263.63-263.63s263.62,118.02,263.62,263.63-118.02,263.64-263.62,263.64Z"/><path class="cls-24" d="m364.98,272.4c0-51.14-41.45-92.59-92.58-92.59-51.14,0-92.59,41.45-92.59,92.59s41.45,92.6,92.59,92.59c51.13,0,92.58-41.46,92.58-92.59Zm-99.85,0c0-4.02,3.25-7.27,7.27-7.27s7.27,3.25,7.27,7.27-3.25,7.27-7.27,7.27-7.27-3.25-7.27-7.27Z"/><path class="cls-21" d="m272.4,212.2c33.25,0,60.19,26.95,60.19,60.2h0c0,33.25-26.94,60.2-60.19,60.2h0c-33.24,0-60.19-26.95-60.2-60.2h0c0-33.25,26.96-60.19,60.2-60.2h0Zm0,1.1c-32.64.06-59.04,26.46-59.1,59.1h0c.05,32.64,26.45,59.05,59.1,59.1h0c32.64-.05,59.03-26.45,59.09-59.1h0c-.06-32.64-26.46-59.04-59.09-59.1h0Z"/></g></g></svg>